<svg id="Layer_1" data-name="Layer 1" xmlns="http://www.w3.org/2000/svg" viewBox="0 0 300 300"><title>PK-Afternoon</title><path d="M216.5,83.5A94.06,94.06,0,1,0,244,150,93.45,93.45,0,0,0,216.5,83.5Zm-3.9,129.1A88.53,88.53,0,1,1,238.53,150,87.95,87.95,0,0,1,212.6,212.6Z"/><path d="M150,85.41a2.76,2.76,0,0,0-2.76,2.75V99.94a2.76,2.76,0,0,0,5.52,0V88.16A2.76,2.76,0,0,0,150,85.41Z"/><path d="M150,197.3a2.77,2.77,0,0,0-2.76,2.76v11.78a2.76,2.76,0,0,0,5.52,0V200.06A2.77,2.77,0,0,0,150,197.3Z"/><path d="M211.84,147.24H200.06a2.76,2.76,0,0,0,0,5.52h11.78a2.76,2.76,0,0,0,0-5.52Z"/><path d="M99.94,147.24H88.16a2.76,2.76,0,0,0,0,5.52H99.94a2.76,2.76,0,0,0,0-5.52Z"/><path d="M102.92,119.64l-5.1-3a2.76,2.76,0,0,0-2.75,4.78l5.1,2.94a2.75,2.75,0,1,0,2.75-4.77Z"/><path d="M204.93,178.53l-5.1-2.94a2.75,2.75,0,1,0-2.75,4.77l5.1,2.95a2.7,2.7,0,0,0,1.37.36,2.75,2.75,0,0,0,1.38-5.14Z"/><path d="M182.3,94.06a2.76,2.76,0,0,0-3.77,1l-2.94,5.1a2.75,2.75,0,0,0,1,3.76,2.71,2.71,0,0,0,1.37.37,2.75,2.75,0,0,0,2.39-1.38l2.95-5.1A2.76,2.76,0,0,0,182.3,94.06Z"/><path d="M123.4,196.07a2.75,2.75,0,0,0-3.76,1l-3,5.1a2.76,2.76,0,0,0,4.78,2.75l2.94-5.1A2.75,2.75,0,0,0,123.4,196.07Z"/><path d="M205.94,117.7a2.76,2.76,0,0,0-3.76-1l-5.1,3a2.75,2.75,0,1,0,2.75,4.77l5.1-2.94A2.76,2.76,0,0,0,205.94,117.7Z"/><path d="M103.93,176.6a2.75,2.75,0,0,0-3.76-1l-5.1,2.94a2.75,2.75,0,0,0,1.38,5.14,2.7,2.7,0,0,0,1.37-.36l5.1-2.95A2.75,2.75,0,0,0,103.93,176.6Z"/><path d="M124.41,100.17l-2.94-5.1a2.76,2.76,0,0,0-4.78,2.75l3,5.1A2.75,2.75,0,0,0,122,104.3a2.71,2.71,0,0,0,1.37-.37A2.75,2.75,0,0,0,124.41,100.17Z"/><path d="M183.31,202.18l-2.95-5.1a2.75,2.75,0,1,0-4.77,2.75l2.94,5.1a2.75,2.75,0,0,0,2.39,1.38,2.76,2.76,0,0,0,2.39-4.13Z"/><path d="M191,143.69a2.75,2.75,0,0,0-3.14-2.3L157.68,146a8.66,8.66,0,0,0-7.68-4.67,8.55,8.55,0,0,0-3.84.9l-29.55-29.54a2.75,2.75,0,1,0-3.89,3.89l29.54,29.55a8.55,8.55,0,0,0-.9,3.84,8.64,8.64,0,0,0,17.16,1.48l30.18-4.65A2.74,2.74,0,0,0,191,143.69Zm-41,9.44a3.13,3.13,0,1,1,3.13-3.13A3.13,3.13,0,0,1,150,153.13Z"/><path d="M199.5,91.86A76.35,76.35,0,0,0,91.87,199.5a2.72,2.72,0,0,0,2.09,1,2.76,2.76,0,0,0,2.1-4.55,70.84,70.84,0,0,1,99.86-99.86,2.76,2.76,0,0,0,3.58-4.2Z"/><path d="M208.14,100.5a2.76,2.76,0,1,0-4.2,3.58,70.84,70.84,0,0,1-99.86,99.86,2.76,2.76,0,1,0-3.58,4.19A76.07,76.07,0,0,0,150,226.36c1,0,1.9,0,2.86-.05A76.36,76.36,0,0,0,208.14,100.5Z"/></svg>