<svg id="Layer_1" data-name="Layer 1" xmlns="http://www.w3.org/2000/svg" viewBox="0 0 300 300"><title>PK-Breakfast</title><path d="M153.59,134.07a3.18,3.18,0,0,0-2.31.61,24.69,24.69,0,0,0-9.79,19.77,3.12,3.12,0,0,0,6.24,0,18.47,18.47,0,0,1,7.34-14.81,3.12,3.12,0,0,0,.58-4.37A3.07,3.07,0,0,0,153.59,134.07Z"/><path d="M218.28,107.31l-.31.4h0l.25-.44c-1.79-1.4-3.64-2.84-5.39-4.37a3.12,3.12,0,0,0-4.1,4.71c1.92,1.67,3.93,3.24,5.71,4.62,10.25,8,19.11,14.91,19.11,41.84A65.45,65.45,0,0,1,223.77,188c-4.74,7.53-13.2,17.16-26.63,20.34-9.47,2.25-15.85,7.71-22,13-7.14,6.13-13.89,11.92-25.12,11.92-18,0-29.46-9.37-42.06-24.49a3.12,3.12,0,1,0-4.79,4c10.77,12.94,24.17,26.74,46.85,26.74,13.54,0,21.49-6.82,29.19-13.42,5.86-5,11.39-9.77,19.38-11.67,26.77-6.33,41.21-35.82,41.21-60.35C239.78,124.1,228.85,115.56,218.28,107.31Z"/><path d="M96.13,194.24c-4.1-4.91-8.8-7.68-13.35-10.35-8.76-5.16-16.32-9.61-16.32-29.82,0-10.3,2.84-18.61,8.69-25.4,5.24-6.09,12.07-10.21,18.7-14.21,4.72-2.84,9.18-5.53,12.73-8.76,5.55-5,8.15-11.36,10.68-17.46C122,76.7,126.15,66.73,150,66.73c25.8,0,34.14,10.94,44.71,24.79l.07.1c1.63,2.13,3.31,4.34,5.1,6.55a3.12,3.12,0,1,0,4.85-3.93c-1.76-2.18-3.44-4.38-5.06-6.5C189,73.73,178.89,60.49,150,60.49c-12.43,0-21.51,2.63-27.75,8.05-5.61,4.86-8.23,11.19-10.76,17.32-2.37,5.72-4.6,11.11-9.11,15.22-3.09,2.81-7.28,5.34-11.77,8-13.54,8.17-30.39,18.33-30.39,44.94,0,23.78,9.86,29.58,19.39,35.19,4.28,2.52,8.32,4.9,11.73,9,1.18,1.42,2.44,3,4.08,5a3.12,3.12,0,0,0,4.86-3.92C98.62,197.25,97.34,195.69,96.13,194.24Z"/><path d="M166.33,117.8A36.65,36.65,0,1,0,203,154.45,36.69,36.69,0,0,0,166.33,117.8Zm30.41,36.65A30.41,30.41,0,1,1,166.33,124,30.45,30.45,0,0,1,196.74,154.45Z"/></svg>