<svg id="Layer_1" data-name="Layer 1" xmlns="http://www.w3.org/2000/svg" viewBox="0 0 300 300"><title>PK-Dessert</title><path d="M237.66,134.9a3.07,3.07,0,0,0-2.34-.46,20.93,20.93,0,0,1-25.27-18.15,3,3,0,0,0-4.5-2.25,20.91,20.91,0,0,1-30.81-23.6,3,3,0,0,0-3.38-3.76,20.85,20.85,0,0,1-24.2-23.09,3,3,0,0,0-.8-2.42,3.07,3.07,0,0,0-2.37-.93,89.86,89.86,0,1,0,95.87,89.64,90.81,90.81,0,0,0-.94-13A3.07,3.07,0,0,0,237.66,134.9ZM150,233.75a83.87,83.87,0,0,1-9-167.24A27,27,0,0,0,168,93h.18a25,25,0,0,0-.18,3,26.92,26.92,0,0,0,36.89,25,27,27,0,0,0,28.51,19.77,83.81,83.81,0,0,1-83.37,93Z"/><path d="M141,122.92a15,15,0,1,0,15,15A15,15,0,0,0,141,122.92Zm0,24a9,9,0,1,1,9-9A9,9,0,0,1,141,146.89Z"/><path d="M120.05,182.83a15,15,0,1,0,15,15A15,15,0,0,0,120.05,182.83Zm0,24a9,9,0,1,1,9-9A9,9,0,0,1,120.05,206.79Z"/><path d="M186,182.83a15,15,0,1,0,15,15A15,15,0,0,0,186,182.83Zm0,24a9,9,0,1,1,9-9A9,9,0,0,1,186,206.79Z"/><path d="M99.08,149.88a6,6,0,1,1-6-6A6,6,0,0,1,99.08,149.88Z"/><path d="M171,179.83a6,6,0,1,1-6-6A6,6,0,0,1,171,179.83Z"/><path d="M203.92,143.89a6,6,0,1,1-6-6A6,6,0,0,1,203.92,143.89Z"/><path d="M118.43,88.64l-2.75-5.33a74,74,0,0,0-9.36,5.74l3.5,4.86A68.14,68.14,0,0,1,118.43,88.64Z"/><path d="M78.35,128l5.74,1.75a68.84,68.84,0,0,1,20-31.26l-4-4.46A74.79,74.79,0,0,0,78.35,128Z"/></svg>