<svg id="Layer_1" data-name="Layer 1" xmlns="http://www.w3.org/2000/svg" viewBox="0 0 300 300"><title>PK-Travel</title><path d="M241.82,138.73c-1.14-2.58-3.28-4.62-6.72-6.43-4.68-2.45-9.85-3.16-13.84-3.51a112.78,112.78,0,0,0-23,.69,272.82,272.82,0,0,0-28.25,5,3.35,3.35,0,0,1-2.81-.5c-4.61-3.11-9.35-6.26-13.53-9l-9.56-6.37-15.4-10.28a2.57,2.57,0,0,0-2.4-.57l-4.3,1.45c-2.78.94-5.65,1.91-8.47,2.88a2.4,2.4,0,0,0-1.7,2.74,4.92,4.92,0,0,0,1.17,2c5.34,6,10.79,12.19,16.06,18.13l5.26,5.93c.2.23.4.46.62.73l1.35,1.6-2,.69c-.2.07-.38.14-.56.19l-3.79,1.22c-3.45,1.1-7,2.25-10.56,3.43a3.68,3.68,0,0,1-3.14-.26q-7.29-3.93-14.61-7.84l-11.44-6.13a3.92,3.92,0,0,0-1.81-.53,2.81,2.81,0,0,0-.94.16l-5.78,2-.38.14q-3.72,1.25-7.42,2.52a3,3,0,0,0-2,1.84,2.9,2.9,0,0,0,.75,2.62l7.86,9.75,5.33,6.59c.17.21.32.42.5.66l1.08,1.44-3.41,1.37c-1.51.6-3.07,1.22-4.63,1.87a2.61,2.61,0,0,0-1.57,1.65,2.57,2.57,0,0,0,.38,2.21c1.1,1.66,2.21,3.3,3.33,5,.69,1,1.38,2,2.06,3a2.07,2.07,0,0,0,1.76,1l10.16.46q8.66.41,17.24.77a168.73,168.73,0,0,0,28.7-1.34c12.92-1.65,23.77-3.11,34.74-4.9a269.91,269.91,0,0,0,39.9-9.56c5.32-1.73,12.21-4.24,18.32-8.3a20.56,20.56,0,0,0,6.78-6.67A9.84,9.84,0,0,0,241.82,138.73ZM126.38,125l-6.85-7.72c-.15-.17-.29-.35-.45-.56l-1.16-1.49,3-1c1.62-.56,3.28-1.13,5-1.65a2.49,2.49,0,0,1,2,.55l21.18,14.12,28.64,19.1.64.44,2.64,1.8-6.38,1.71L168.09,152l-4.13,1.1c-2.86.75-5.73,1.51-8.59,2.29a3.15,3.15,0,0,1-.91.14,2.36,2.36,0,0,1-1.82-.89C143.71,144.57,134.5,134.18,126.38,125Zm110.88,20.65a15.82,15.82,0,0,1-5.61,5.47,69.66,69.66,0,0,1-17.19,7.75A261.34,261.34,0,0,1,177,168c-10,1.65-20.58,3.19-33.43,4.85a191.41,191.41,0,0,1-24.61,1.77c-2.15,0-4.29-.05-6.36-.15L102.06,174l-1.52-.07q-6.3-.27-12.59-.56a2.51,2.51,0,0,1-1.79-.82c-.57-.76-1.09-1.54-1.65-2.37l-.15-.22c-.16-.25-.33-.51-.51-.76l-.72-1.07L91,164.9a2.63,2.63,0,0,0,1.2-4.56c-2.8-3.51-5.67-7.05-8.45-10.48l-4.14-5.11-.73-.94-1.31-1.68,1.39-.47,1.86-.62.11,0a36.43,36.43,0,0,0,4-1.45,6.44,6.44,0,0,1,6.29.48c4.78,2.63,9.68,5.25,14.42,7.78l.16.09q4.41,2.34,8.8,4.71a6.45,6.45,0,0,0,5.37.44c3.27-1.06,6.57-2.09,9.76-3.09l.09,0c2.74-.86,5.49-1.72,8.23-2.6a2.44,2.44,0,0,1,2.83.82q3.12,3.51,6.26,7l.39.44,4.49,5c.2.22.24.26.62.16,11.12-3,22.23-6,33-8.81,1.63-.43,2.31-1,2.5-2.23s-.28-2.08-1.72-3c-2.39-1.55-4.79-3.17-7.12-4.73l-2.52-1.69c-.2-.13-.39-.28-.65-.48l-2.34-1.77,2.31-.44a8.16,8.16,0,0,1,1.44-.3l.69-.11,2.21-.42L185,136c3.42-.61,6.45-1.1,9.26-1.5,3.4-.49,6.52-.85,9.56-1.1,3.38-.28,6.67-.43,9.76-.44s6.39.14,9.72.45l.2,0a1.38,1.38,0,0,1,.74.84c.11.32,0,1-.39,1.19l-1,.35-.7.25-2.9.92c-1.92.61-3.84,1.22-5.76,1.85a2.36,2.36,0,0,0-1.84,2.49,2.15,2.15,0,0,0,.93,1.6,2.7,2.7,0,0,0,2.27.17l10.74-3.42,4.77-1.52.36-.13a6.85,6.85,0,0,1,1.12-.32,2.52,2.52,0,0,0,.49-.18,2.44,2.44,0,0,1,2.72.1l.1.07c1.29,1,2.9,2.24,2.95,4.43A7.44,7.44,0,0,1,237.26,145.67Z"/><path d="M72,184.61a2.29,2.29,0,0,0-1-.25,2,2,0,0,0-.63.1h0c-3.47,1-7.26,2.25-11.6,3.67a2,2,0,0,0-1.4,2,2.25,2.25,0,0,0,.87,1.86,2.1,2.1,0,0,0,1.92.31c3.32-1,6.87-2.12,11.49-3.63A2.21,2.21,0,0,0,73,185.88,2.17,2.17,0,0,0,72,184.61Z"/><path d="M61.64,177.59h0c3.1-.91,6.13-1.9,8.43-2.67a2.05,2.05,0,0,0,1.47-2.1,2.19,2.19,0,0,0-.86-1.79,2.1,2.1,0,0,0-1.29-.42,2.42,2.42,0,0,0-.7.1c-2.55.76-5.28,1.62-8.32,2.63a2.18,2.18,0,0,0-1.44,2.8A2.15,2.15,0,0,0,61.64,177.59Z"/></svg>