<svg id="Layer_1" data-name="Layer 1" xmlns="http://www.w3.org/2000/svg" viewBox="0 0 300 300"><title>PK-Workout</title><path d="M136.65,215.9H56.53a2.81,2.81,0,0,0-2,4.9,3.34,3.34,0,0,0,2.54.77H136.3a4.12,4.12,0,0,0,1.25-.19,2.81,2.81,0,0,0-.9-5.47Z"/><path d="M56.29,201.37H100a2.64,2.64,0,0,0,2.14-1.09,2.8,2.8,0,0,0,.43-2.49,2.75,2.75,0,0,0-3-2H84.31l-6.11,0H66.54l-10.31,0a2.73,2.73,0,0,0-2.61,2.76,2.85,2.85,0,0,0,.83,2A2.61,2.61,0,0,0,56.29,201.37Z"/><path d="M56.53,181.3H73.15a2.82,2.82,0,0,0,2.5-4.13A2.73,2.73,0,0,0,73,175.63c-4.79,0-9.58,0-14.37,0H57a7.17,7.17,0,0,0-1,.07,2.75,2.75,0,0,0-2.35,2.9A2.79,2.79,0,0,0,56.53,181.3Z"/><path d="M246.05,181.23a20.08,20.08,0,0,0-7.67-12.7,19.42,19.42,0,0,0-10.7-4.06l-4.61-.33-4.31-.32-5-.37-3.39-.24L207,163l-2.37-.18c-1.71-.13-3.42-.26-5.13-.36a1.72,1.72,0,0,1-1.56-.93c-.75-1.31-1.53-2.59-2.3-3.88L192.26,152q-11.19-18.73-22.38-37.47a3.12,3.12,0,0,1-.38-1.45c0-.6,0-1.21,0-1.82a19.67,19.67,0,0,0-.1-3.09,8.08,8.08,0,0,0-3.9-5.89,8.23,8.23,0,0,0-7.18-.55q-7.91,3-15.78,6.12l-8.18,3.17-2.26.86-2.2.83.71-2.37c.26-.83.49-1.61.71-2.4.14-.51.29-1,.44-1.52a16,16,0,0,0,.94-4.63c0-5.12-2.1-8.92-6.36-11.31-4.53-2.53-9.18-5-13.68-7.44l-7.93-4.27a3,3,0,0,0-4,1.09Q89.59,97.82,78.44,115.74l-9.53,15.32-.8-.43-.47-.24a3,3,0,0,0-1.33-.32A2.66,2.66,0,0,0,64,131.5c-3.18,6-6.45,12.13-10,18.82a2.82,2.82,0,0,0,1.18,3.84c.61.32,1.21.66,1.81,1l11.86,6.59,72.61,40.4q16.92,9.43,33.87,18.82a4.56,4.56,0,0,0,2.13.57c16.6,0,32.94.05,48.56,0a22.55,22.55,0,0,0,4.92-.46,19.69,19.69,0,0,0,15.45-19.34v-1.33q0-7.78,0-15.59A19.53,19.53,0,0,0,246.05,181.23ZM165.88,118.9l26.65,44.57L191,164c-.87.3-1.68.59-2.53.83a.76.76,0,0,1-.21,0,1.69,1.69,0,0,1-1.14-.65c-1.53-2-3.05-4-4.57-5.95l-25.21-32.92ZM104.26,85l11.81,6.37c2.48,1.34,5,2.67,7.44,4a6.73,6.73,0,0,1,3.33,7.87c-.6,2.12-1.23,4.23-1.86,6.37l-1.06,3.58L97.07,97ZM94.11,101.83l10.34,6.22,19.46,11.72a3.11,3.11,0,0,0,2.88.28l28.37-11,2.54-1,2.55-1a2.71,2.71,0,0,1,2.49.19,2.66,2.66,0,0,1,1.15,2.14,32.73,32.73,0,0,1,0,3.28,1.66,1.66,0,0,1-.65,1.13q-5.61,4.26-11.26,8.49a3.26,3.26,0,0,0-1.44,2.13,3.11,3.11,0,0,0,.78,2.36q7,9.17,14,18.3l19.15,25a2.76,2.76,0,0,0,3.13,1l3.54-1.18c1.7-.57,3.4-1.14,5.11-1.68a5.8,5.8,0,0,1,2.14-.23c2.12.12,4.23.28,6.34.44l1.4.11,3.11.24,3.88.29,2.55.17c1.51.09,3.07.19,4.61.34,1,.1,2.1.15,3.13.2a30.73,30.73,0,0,1,6.69.81,14.36,14.36,0,0,1,10.43,12.11,36.51,36.51,0,0,1,.16,4.17v1.3c0,1.6,0,3.19,0,4.83v2.75H181.78a3.34,3.34,0,0,1-1.61-.38q-9.63-5.53-19.24-11.1l-2.51-1.45-.38-.23-.79-.52,1.76-1.82c1-1,2-2.08,3-3.11.43-.45.87-.89,1.31-1.33.65-.65,1.29-1.3,1.92-2a3,3,0,0,0,.86-2.33,2.72,2.72,0,0,0-1.11-2,2.8,2.8,0,0,0-3.57.17l-8.5,8.69a1.19,1.19,0,0,1-1.63.32q-4.34-2.53-8.68-5l-3.06-1.77a2.26,2.26,0,0,1-.28-.21l-.71-.55,2-1.6,2.71-2.19,3-2.41,5.44-4.36a2.82,2.82,0,0,0,.47-4,2.77,2.77,0,0,0-1.89-1.07,3,3,0,0,0-2.15.7L143.49,160c-3.16,2.53-6.32,5.07-9.49,7.59a1.52,1.52,0,0,1-1.52.22c-2.88-1.63-5.76-3.29-8.67-5l-2.45-1.41,17-14.19a2.73,2.73,0,0,0,1-3,2.69,2.69,0,0,0-2.4-2.12,2.57,2.57,0,0,0-2.11.64q-5.39,4.49-10.75,9l-7.94,6.64-1.35-.78c-1.28-.74-2.55-1.47-3.81-2.22a1.34,1.34,0,0,1-.56-1.11c.07-2,.16-3.92.24-5.88l.11-2.53q.06-1.4.15-2.79a56.18,56.18,0,0,0,.17-6.22,24.53,24.53,0,0,0-5.6-14.36,36.17,36.17,0,0,0-6.85-6.06l-9.38-7Zm-7.87,12.41,2.63,2c1.62,1.2,3.2,2.38,4.76,3.58l1.53,1.15a49.92,49.92,0,0,1,4.63,3.75,18.48,18.48,0,0,1,5.54,11.1,20.92,20.92,0,0,1,0,5.54c-.1.87-.12,1.77-.14,2.64l0,1c0,.81-.06,1.63-.08,2.45L105,149.9c0,.23,0,.45-.07.71l-.16,1.23-31-17.92ZM240.71,202a13.59,13.59,0,0,1-3.51,9.22,13.86,13.86,0,0,1-10.79,4.72H178.64a3.47,3.47,0,0,1-1.66-.43q-28.54-15.84-57.07-31.73L61.63,151.29l-.6-.35-.77-.46,7.23-13.65,88.38,51.06q11.26,6.51,22.56,13a3.7,3.7,0,0,0,1.77.46q25.4,0,50.79,0h9.73Z"/></svg>